HIERARCHY
ROOT Hips
{
	OFFSET 0.000000 0.000000 0.000000
	CHANNELS 6 Xposition Yposition Zposition Zrotation Yrotation Xrotation 
	JOINT LowerBack
	{
		OFFSET 0.000000 0.000000 0.000000
		CHANNELS 3 Zrotation Yrotation Xrotation
		JOINT Spine
		{
			OFFSET 0.028270 2.035590 -0.193380
			CHANNELS 3 Zrotation Yrotation Xrotation
			JOINT Spine1
			{
				OFFSET 0.056720 2.048850 -0.042750
				CHANNELS 3 Zrotation Yrotation Xrotation
				JOINT Neck
				{
					OFFSET 0.000000 0.000000 0.000000
					CHANNELS 3 Zrotation Yrotation Xrotation
					JOINT Neck1
					{
						OFFSET -0.054170 1.746240 0.172020
						CHANNELS 3 Zrotation Yrotation Xrotation
						JOINT Head
						{
							OFFSET 0.104070 1.761360 -0.123970
							CHANNELS 3 Zrotation Yrotation Xrotation
							End Site
							{
								OFFSET 0.000000 0.000000 0.000000
							}
						}
					}
				}
				JOINT LeftShoulder
				{
					OFFSET 0.000000 0.000000 0.000000
					CHANNELS 3 Zrotation Yrotation Xrotation
					JOINT LeftArm
					{
						OFFSET 3.362410 1.200890 -0.311210
						CHANNELS 3 Zrotation Yrotation Xrotation
						JOINT LeftForeArm
						{
							OFFSET 4.983000 -0.000000 -0.000000
							CHANNELS 3 Zrotation Yrotation Xrotation
							JOINT LeftHand
							{
								OFFSET 3.483560 -0.000000 -0.000000
								CHANNELS 3 Zrotation Yrotation Xrotation
								JOINT LeftFingerBase
								{
									OFFSET 0.000000 0.000000 0.000000
									CHANNELS 3 Zrotation Yrotation Xrotation
									JOINT LeftHandIndex1
									{
										OFFSET 0.715260 -0.000000 -0.000000
										CHANNELS 3 Zrotation Yrotation Xrotation
										End Site
										{
											OFFSET 0.000000 0.000000 0.000000
										}
									}
								}
								JOINT LThumb
								{
									OFFSET 0.000000 0.000000 0.000000
									CHANNELS 3 Zrotation Yrotation Xrotation
									End Site
									{
										OFFSET 0.000000 0.000000 0.000000
									}
								}
							}
						}
					}
				}
				JOINT RightShoulder
				{
					OFFSET 0.000000 0.000000 0.000000
					CHANNELS 3 Zrotation Yrotation Xrotation
					JOINT RightArm
					{
						OFFSET -3.136600 1.374050 -0.404650
						CHANNELS 3 Zrotation Yrotation Xrotation
						JOINT RightForeArm
						{
							OFFSET -5.241900 -0.000000 -0.000000
							CHANNELS 3 Zrotation Yrotation Xrotation
							JOINT RightHand
							{
								OFFSET -3.444170 -0.000000 -0.000000
								CHANNELS 3 Zrotation Yrotation Xrotation
								JOINT RightFingerBase
								{
									OFFSET 0.000000 0.000000 0.000000
									CHANNELS 3 Zrotation Yrotation Xrotation
									JOINT RightHandIndex1
									{
										OFFSET -0.622530 -0.000000 -0.000000
										CHANNELS 3 Zrotation Yrotation Xrotation
										End Site
										{
											OFFSET 0.000000 0.000000 0.000000
										}
									}
								}
								JOINT RThumb
								{
									OFFSET 0.000000 0.000000 0.000000
									CHANNELS 3 Zrotation Yrotation Xrotation
									End Site
									{
										OFFSET 0.000000 0.000000 0.000000
									}
								}
							}
						}
					}
				}
			}
		}
	}
}
}
MOTION
Frames: 6
Frame Time: 0.008333
23.807476 14.318837 1.923604 -119.678706 -88.458315 161.377580 -11.152460 1.330753 3.244051 -2.933077 1.794806 -2.182708 -3.164130 1.773778 0.478134 7.115556 -12.282899 -9.689310 0.780834 0.138960 -1.031713 0.000000 0.000000 0.000000 10.787562 16.749831 3.388636 -59.011311 34.301293 27.289022 -0.489398 -83.028871 0.017038 -13.416803 1.933766 -0.223887 0.151869 0.055473 -0.000000 0.000000 0.000000 0.000000 0.000000 0.000000 0.000000 -5.528339 -4.923012 0.432245 56.212302 15.441250 20.621773 178.508976 70.274217 -179.953022 5.918602 3.244290 0.197969 -0.107231 -0.512182 -0.000000 0.000000 0.000000 0.000000 0.000000 0.000000 0.000000 
23.567493 14.291313 1.908506 -120.056904 -88.544543 161.463466 -11.586372 1.318116 3.320937 -3.059892 1.788883 -2.181129 -3.295522 1.770572 0.427598 7.123978 -12.148222 -9.685857 0.720553 0.134361 -1.033538 0.000000 0.000000 0.000000 10.240747 16.516934 3.459088 -58.412449 32.862999 26.818074 -0.539170 -82.385057 0.016996 -12.941384 2.013272 -0.224484 0.136000 0.057940 -0.000000 0.000000 0.000000 0.000000 0.000000 0.000000 0.000000 -5.396699 -4.759578 0.407014 57.110624 15.204598 20.663201 178.538633 70.511491 -179.952144 6.034376 3.214503 0.200469 -0.113139 -0.513395 -0.000000 0.000000 0.000000 0.000000 0.000000 0.000000 0.000000 
23.330947 14.268124 1.895477 -119.414008 -88.550386 160.558752 -11.927749 1.307276 3.387138 -3.167556 1.782771 -2.180324 -3.436006 1.766894 0.383162 7.118790 -11.971392 -9.673252 0.646422 0.128406 -1.033483 0.000000 0.000000 0.000000 9.597223 16.344786 3.530964 -57.787220 31.254118 26.317195 -0.594512 -81.683052 0.016875 -12.392866 2.094291 -0.223169 0.118628 0.060930 -0.000000 0.000000 0.000000 0.000000 0.000000 0.000000 0.000000 -5.219140 -4.562514 0.372435 58.068751 15.017977 20.724453 178.582298 70.889878 -179.951889 6.070677 3.169282 0.199279 -0.116648 -0.513526 -0.000000 0.000000 0.000000 0.000000 0.000000 0.000000 0.000000 
23.098437 14.249823 1.884532 -118.086570 -88.495003 159.008560 -12.187593 1.293283 3.446619 -3.258366 1.771740 -2.179390 -3.584582 1.758111 0.342535 7.101061 -11.748876 -9.654218 0.558463 0.121189 -1.032673 0.000000 0.000000 0.000000 8.868546 16.223146 3.606427 -57.150578 29.477258 25.777416 -0.656267 -80.917036 0.016659 -11.791025 2.177267 -0.220147 0.100076 0.064383 -0.000000 0.000000 0.000000 0.000000 0.000000 0.000000 0.000000 -4.994581 -4.329059 0.329653 59.088908 14.866469 20.791566 178.638328 71.398349 -179.952130 6.046162 3.116680 0.195697 -0.118393 -0.512826 -0.000000 0.000000 0.000000 0.000000 0.000000 0.000000 0.000000 
22.870657 14.236998 1.875638 -116.280508 -88.396568 157.020887 -12.372106 1.272269 3.507018 -3.333564 1.751980 -2.176998 -3.740650 1.740539 0.302152 7.070947 -11.477943 -9.629171 0.456709 0.112753 -1.031540 0.000000 0.000000 0.000000 8.071059 16.132198 3.686902 -56.521795 27.541401 25.187541 -0.725414 -80.079323 0.016340 -11.156497 2.265324 -0.216120 0.080712 0.068221 -0.000000 0.000000 0.000000 0.000000 0.000000 0.000000 0.000000 -4.722968 -4.056409 0.280441 60.173039 14.732463 20.846618 178.705209 72.029633 -179.952696 5.985208 3.066457 0.191120 -0.119185 -0.511542 -0.000000 0.000000 0.000000 0.000000 0.000000 0.000000 0.000000 
22.648184 14.230170 1.868660 -114.167453 -88.272280 154.763081 -12.487633 1.242008 3.578957 -3.394380 1.721208 -2.171478 -3.903591 1.712037 0.257675 7.027545 -11.157394 -9.595802 0.341399 0.103105 -1.029661 0.000000 0.000000 0.000000 7.224439 16.045728 3.772788 -55.921784 25.462667 24.536357 -0.802923 -79.161516 0.015915 -10.508486 2.363184 -0.211788 0.060929 0.072359 -0.000000 0.000000 0.000000 0.000000 0.000000 0.000000 0.000000 -4.405898 -3.742865 0.226793 61.323704 14.598269 20.869354 178.781662 72.780545 -179.953398 5.915120 3.028314 0.186843 -0.119911 -0.509878 -0.000000 0.000000 0.000000 0.000000 0.000000 0.000000 0.000000 
